# xmcd CD database file
#
# Track frame offsets:
#	150
#	15793
#	31157
#	45843
#	62014
#	75481
#	88972
#	101425
#	117339
#	132384
#	146096
#	169955
#	185233
#	203517
#	233992
#	259876
#	285031
#	315648
#	344837
#
# Disc length: 4910 seconds
#
# Revision: 0
# Processed by: cddbd v1.5.2PL0 Copyright (c) Steve Scherf et al.
# Submitted via: CDex 1.72
#
DISCID=06132c13
DTITLE=Art Pepper - 1954-1962, CD 4 sur 6
DYEAR=1900
DGENRE=Jazz
TTITLE0=Move
TTITLE1=Groovin' High
TTITLE2=Opus De Funk
TTITLE3=Round Midnight
TTITLE4=Four Brothers
TTITLE5=Shaw 'Nuff
TTITLE6=Bernie's Tune
TTITLE7=Walkin' Shoes
TTITLE8=Anthropology
TTITLE9=Airegin
TTITLE10=Walkin'
TTITLE11=Donna Lee
TTITLE12=For Minors Only
TTITLE13=Minor - Yours
TTITLE14=Resonant Emotions
TTITLE15=Tynan Tyme
TTITLE16=Picture Of Heath
TTITLE17=For Miles And Miles
TTITLE18=Cta
EXTD=
EXTT0=
EXTT1=
EXTT2=
EXTT3=
EXTT4=
EXTT5=
EXTT6=
EXTT7=
EXTT8=
EXTT9=
EXTT10=
EXTT11=
EXTT12=
EXTT13=
EXTT14=
EXTT15=
EXTT16=
EXTT17=
EXTT18=
PLAYORDER=
